<svg width="600" height="600" viewBox="0 0 600 600" fill="none" xmlns="http://www.w3.org/2000/svg">
<path d="M182.6 389H158.6V181.8H182.6V213H183.4C189.533 201 198.333 191.933 209.8 185.8C221.267 179.4 233.8 176.2 247.4 176.2C257 176.2 265.133 177.267 271.8 179.4C278.467 181.533 284.067 184.467 288.6 188.2C293.4 191.667 297.267 195.8 300.2 200.6C303.4 205.4 306.067 210.6 308.2 216.2C315.133 202.6 324.333 192.6 335.8 186.2C347.533 179.533 360.867 176.2 375.8 176.2C389.933 176.2 401.133 178.6 409.4 183.4C417.933 187.933 424.467 194.067 429 201.8C433.533 209.267 436.467 217.933 437.8 227.8C439.4 237.667 440.2 247.8 440.2 258.2V389H416.2V245.8C416.2 230.867 413 219.133 406.6 210.6C400.467 202.067 388.867 197.8 371.8 197.8C363 197.8 354.467 199.8 346.2 203.8C338.2 207.533 331.133 213.4 325 221.4C322.333 224.867 320.067 229 318.2 233.8C316.6 238.333 315.267 243.133 314.2 248.2C313.133 253.267 312.333 258.333 311.8 263.4C311.533 268.467 311.4 273.133 311.4 277.4V389H287.4V245.8C287.4 230.867 284.2 219.133 277.8 210.6C271.667 202.067 260.067 197.8 243 197.8C234.2 197.8 225.667 199.8 217.4 203.8C209.4 207.533 202.333 213.4 196.2 221.4C193.533 224.867 191.267 229 189.4 233.8C187.8 238.333 186.467 243.133 185.4 248.2C184.333 253.267 183.533 258.333 183 263.4C182.733 268.467 182.6 273.133 182.6 277.4V389Z" fill="#777777"/>
<circle cx="21.5" cy="21.5" r="21.5" transform="matrix(-1 0 0 1 568 430)" fill="#777777"/>
<path fill-rule="evenodd" clip-rule="evenodd" d="M508.78 485.078C457.669 542.692 383.075 579 300 579C145.913 579 21 454.087 21 300C21 145.913 145.913 21 300 21C454.087 21 579 145.913 579 300C579 336.261 572.083 370.906 559.495 402.688C566.467 404.539 572.847 407.845 578.29 412.26C592.292 377.584 600 339.692 600 300C600 134.315 465.685 0 300 0C134.315 0 0 134.315 0 300C0 465.685 134.315 600 300 600C390.021 600 470.781 560.35 525.769 497.562C519.253 494.625 513.473 490.346 508.78 485.078Z" fill="#777777"/>
</svg>